<?xml version="1.0" standalone="no"?><!DOCTYPE svg PUBLIC "-//W3C//DTD SVG 1.1//EN" "http://www.w3.org/Graphics/SVG/1.1/DTD/svg11.dtd"><svg t="1619331348030" class="icon" viewBox="0 0 1130 1024" version="1.1" xmlns="http://www.w3.org/2000/svg" p-id="3436" xmlns:xlink="http://www.w3.org/1999/xlink" width="220.703125" height="200"><defs><style type="text/css"></style></defs><path d="M517.016116 0C234.303072 0 5.016116 229.286957 5.016116 512S234.303072 1024 517.016116 1024s512-229.286957 512-512S799.729159 0 517.016116 0z m0 857.228986c-36.915942 0-66.782609-29.866667-66.782609-66.782609s29.866667-66.782609 66.782609-66.782609 66.782609 29.866667 66.782609 66.782609c0 36.730435-29.866667 66.782609-66.782609 66.782609zM572.66829 578.782609c0 85.704348-111.304348 85.889855-111.304348 0l-22.26087-335.768116c0-42.110145 34.875362-76.057971 77.913044-76.057971s77.913043 34.133333 77.913043 76.057971l-22.260869 335.768116z" fill="#17abe3" p-id="3437"></path></svg>