<?xml version="1.0" standalone="no"?><!DOCTYPE svg PUBLIC "-//W3C//DTD SVG 1.1//EN" "http://www.w3.org/Graphics/SVG/1.1/DTD/svg11.dtd"><svg t="1619331489297" class="icon" viewBox="0 0 1024 1024" version="1.1" xmlns="http://www.w3.org/2000/svg" p-id="5431" xmlns:xlink="http://www.w3.org/1999/xlink" width="200" height="200"><defs><style type="text/css"></style></defs><path d="M512 1024C229.216 1024 0 794.784 0 512S229.216 0 512 0s512 229.216 512 512-229.216 512-512 512z m0-950.848C269.632 73.152 73.152 269.632 73.152 512c0 242.368 196.48 438.848 438.848 438.848 242.368 0 438.848-196.48 438.848-438.848 0-242.368-196.48-438.848-438.848-438.848z m130.88 428.352c-10.784 10.944-30.208 29.44-58.176 55.424a240.96 240.96 0 0 0-18.624 19.328 77.888 77.888 0 0 0-10.4 15.2c-2.24 4.416-3.968 9.056-5.28 13.824a584.64 584.64 0 0 0-5.632 24.288c-4.32 24.544-17.856 36.832-40.64 36.832-11.808 0-21.76-4.032-29.856-12.032-8.064-8-12.096-19.968-12.096-35.808 0-19.84 2.944-36.992 8.864-51.52 5.92-14.56 13.76-27.296 23.552-38.304 9.792-10.944 22.976-24 39.616-39.136 14.528-13.216 25.088-23.2 31.552-29.92 6.464-6.72 12-14.272 16.384-22.496a56 56 0 0 0 6.656-26.944c0-18.88-6.784-34.816-20.32-47.808-13.536-12.992-31.008-19.52-52.384-19.52-25.024 0-43.456 6.592-55.296 19.68-11.84 13.12-21.824 32.416-30.016 57.92-7.744 26.72-22.4 40.032-44.032 40.032-12.768 0-23.52-4.64-32.256-13.984-8.768-9.312-13.152-19.424-13.152-30.272 0-22.464 6.944-45.184 20.8-68.192 13.888-23.04 34.144-42.112 60.768-57.216 26.624-15.136 57.696-22.688 93.184-22.688 32.96 0 62.112 6.304 87.36 18.944 25.28 12.64 44.8 29.824 58.56 51.552 13.76 21.76 20.672 45.376 20.672 70.88 0 20.064-3.936 37.664-11.808 52.8-7.84 15.072-17.184 28.128-27.968 39.136z m-134.976 197.12c14.336 0 26.4 5.12 36.16 15.264 9.792 10.176 14.72 22.656 14.72 37.536 0 16.544-5.12 29.536-15.36 38.976-10.24 9.44-22.08 14.176-35.52 14.176-13.888 0-25.984-4.672-36.352-13.984-10.368-9.344-15.52-22.4-15.52-39.168 0-14.848 4.992-27.36 15.008-37.536a49.824 49.824 0 0 1 36.864-15.264z" fill="#00A4DB" p-id="5432"></path></svg>